<svg width="21" height="20" viewBox="0 0 21 20" fill="none" xmlns="http://www.w3.org/2000/svg">
<path d="M1.36732 7.48193e-06C1.10389 -0.00101167 0.850744 0.102124 0.663016 0.28693C0.475289 0.471737 0.368191 0.723239 0.36508 0.98665L0.322152 6.01346C0.320606 6.14456 0.344909 6.2747 0.393658 6.39641C0.442406 6.51813 0.514652 6.62904 0.606272 6.72284C0.697892 6.81663 0.807082 6.89146 0.927622 6.94305C1.04816 6.99464 1.17769 7.02197 1.30879 7.0235C1.44072 7.02504 1.57164 7.00044 1.69399 6.95108C1.81634 6.90172 1.92769 6.8286 2.02161 6.73595C2.11554 6.6433 2.19016 6.53295 2.24118 6.41128C2.29219 6.28961 2.31859 6.15904 2.31884 6.02711L2.35588 1.99669H18.2884V17.9741L14.2873 18.0033C14.0235 18.0059 13.7715 18.1127 13.5863 18.3005C13.401 18.4883 13.2976 18.7418 13.2987 19.0056C13.2992 19.1367 13.3255 19.2664 13.3762 19.3873C13.4268 19.5082 13.5008 19.618 13.5938 19.7104C13.6869 19.8027 13.7973 19.8758 13.9186 19.9255C14.0399 19.9752 14.1698 20.0005 14.3009 20L19.2907 19.963C19.5541 19.9619 19.8064 19.8568 19.9927 19.6705C20.179 19.4843 20.2841 19.2319 20.2851 18.9685V0.99445C20.2841 0.72968 20.1779 0.476176 19.9899 0.289687C19.802 0.103199 19.5476 -0.00100316 19.2829 7.48193e-06H1.36732ZM3.364 8.98508C3.23274 8.98457 3.10265 9.00995 2.9812 9.05977C2.85976 9.10959 2.74933 9.18287 2.65624 9.27542C2.56315 9.36797 2.48922 9.47798 2.43869 9.59913C2.38816 9.72028 2.36202 9.85021 2.36176 9.98148C2.36125 10.1132 2.38683 10.2438 2.43702 10.3656C2.4872 10.4874 2.561 10.5981 2.65417 10.6913C2.74734 10.7845 2.85803 10.8583 2.97986 10.9085C3.10169 10.9587 3.23225 10.9842 3.364 10.9837H7.91894L0.659513 18.2646C0.473522 18.4517 0.369132 18.7047 0.369132 18.9685C0.369132 19.2323 0.473522 19.4854 0.659513 19.6724C0.75571 19.7693 0.870755 19.8454 0.997528 19.896C1.1243 19.9467 1.26011 19.9708 1.39657 19.9668C1.65211 19.9592 1.89499 19.8538 2.07513 19.6724L9.35601 12.3779V16.9679C9.35549 17.099 9.3808 17.2289 9.4305 17.3503C9.4802 17.4716 9.55331 17.5819 9.64566 17.675C9.738 17.7681 9.84777 17.842 9.9687 17.8927C10.0896 17.9433 10.2193 17.9697 10.3504 17.9702C10.4822 17.9707 10.6128 17.9451 10.7346 17.8949C10.8564 17.8447 10.9671 17.7709 11.0603 17.6778C11.1535 17.5846 11.2273 17.4739 11.2775 17.3521C11.3276 17.2302 11.3532 17.0997 11.3527 16.9679V9.98148C11.3524 9.85021 11.3263 9.72029 11.2757 9.59915C11.2252 9.478 11.1513 9.368 11.0582 9.27545C10.9651 9.1829 10.8547 9.10963 10.7332 9.0598C10.6118 9.00998 10.4817 8.98459 10.3504 8.98508H3.364Z" fill="white"/>
</svg>
