<svg width="43" height="31" viewBox="0 0 43 31" fill="none" xmlns="http://www.w3.org/2000/svg">
<path d="M-7.64949e-07 13.5L-5.90104e-07 17.5C-2.64891e-07 24.94 6.06 31 13.5 31L29.5 31C36.94 31 43 24.94 43 17.5L43 13.5C43 6.06 36.94 2.33045e-07 29.5 5.58258e-07L13.5 1.25764e-06C6.06 1.58285e-06 -1.09016e-06 6.06 -7.64949e-07 13.5ZM29.5 3C35.28 3 40 7.72 40 13.5L40 17.5C40 23.28 35.28 28 29.5 28L13.5 28C7.72 28 3 23.28 3 17.5L3 13.5C3 7.72 7.72 3 13.5 3L29.5 3ZM24.44 8.44C25.02 7.86 25.98 7.86 26.56 8.44L32.56 14.44C32.86 14.74 33 15.12 33 15.5C33 15.88 32.86 16.26 32.56 16.56L26.56 22.56C25.98 23.14 25.02 23.14 24.44 22.56C23.86 21.98 23.86 21.02 24.44 20.44L27.88 17L19.69 17L11.5 17C10.68 17 10 16.32 10 15.5C10 14.68 10.68 14 11.5 14L27.88 14L24.44 10.56C23.86 9.98 23.86 9.02 24.44 8.44Z" fill="#1F1F1F"/>
</svg>
