<svg width="20" height="16" viewBox="0 0 20 16" fill="none" xmlns="http://www.w3.org/2000/svg">
<path d="M3 13.0012H4.966C5.12584 13.0012 5.28335 13.0395 5.42533 13.1129C5.5673 13.1864 5.68961 13.2928 5.782 13.4232L6.935 15.0492C6.97138 15.1012 7.01292 15.1495 7.059 15.1932C7.57084 15.7046 8.26251 15.9953 8.986 16.0032C9.35485 16.0023 9.71963 15.926 10.058 15.7792C10.6572 15.4977 11.1607 15.0465 11.5059 14.4816C11.8511 13.9167 12.0229 13.2629 12 12.6012V3.4012C12.023 2.7394 11.8512 2.08541 11.506 1.52032C11.1608 0.955221 10.6573 0.503862 10.058 0.222196C9.5572 0.00540964 9.00247 -0.0545402 8.46693 0.0502486C7.93138 0.155037 7.44015 0.419646 7.058 0.809196C7.01218 0.852776 6.97065 0.900663 6.934 0.952196L5.782 2.5822C5.68929 2.71208 5.56683 2.81788 5.42488 2.89078C5.28292 2.96367 5.12558 3.00153 4.966 3.0012H3C2.20435 3.0012 1.44129 3.31727 0.87868 3.87988C0.316071 4.44248 0 5.20555 0 6.0012V10.0012C0 10.7968 0.316071 11.5599 0.87868 12.1225C1.44129 12.6851 2.20435 13.0012 3 13.0012Z" fill="white"/>
<path d="M16.624 0.98019C16.5219 0.894207 16.4036 0.829539 16.2761 0.789997C16.1486 0.750455 16.0145 0.73684 15.8816 0.749955C15.7488 0.76307 15.6199 0.802649 15.5026 0.866359C15.3853 0.930069 15.282 1.01662 15.1986 1.12091C15.1153 1.2252 15.0537 1.34512 15.0175 1.47359C14.9812 1.60206 14.9711 1.7365 14.9876 1.86896C15.0041 2.00142 15.047 2.12923 15.1137 2.24485C15.1804 2.36048 15.2696 2.46158 15.376 2.54219C16.1948 3.19704 16.8559 4.02771 17.3102 4.97268C17.7644 5.91764 18.0003 6.9527 18.0003 8.00119C18.0003 9.04968 17.7644 10.0847 17.3102 11.0297C16.8559 11.9747 16.1948 12.8053 15.376 13.4602C15.2696 13.5408 15.1804 13.6419 15.1137 13.7575C15.047 13.8732 15.0041 14.001 14.9876 14.1334C14.9711 14.2659 14.9812 14.4003 15.0175 14.5288C15.0537 14.6573 15.1153 14.7772 15.1986 14.8815C15.282 14.9858 15.3853 15.0723 15.5026 15.136C15.6199 15.1997 15.7488 15.2393 15.8816 15.2524C16.0145 15.2655 16.1486 15.2519 16.2761 15.2124C16.4036 15.1728 16.5219 15.1082 16.624 15.0222C17.6773 14.1801 18.5277 13.1118 19.112 11.8964C19.6964 10.681 19.9998 9.34975 19.9998 8.00119C19.9998 6.65263 19.6964 5.32135 19.112 4.10598C18.5277 2.89061 17.6773 1.8223 16.624 0.98019Z" fill="white"/>
<path d="M15 11.0012C15.2652 11.0012 15.5196 10.8959 15.7071 10.7083C15.8946 10.5208 16 10.2664 16 10.0012V6.00122C16 5.736 15.8946 5.48165 15.7071 5.29411C15.5196 5.10658 15.2652 5.00122 15 5.00122C14.7348 5.00122 14.4804 5.10658 14.2929 5.29411C14.1054 5.48165 14 5.736 14 6.00122V10.0012C14 10.2664 14.1054 10.5208 14.2929 10.7083C14.4804 10.8959 14.7348 11.0012 15 11.0012Z" fill="white"/>
</svg>
